<svg height="512pt" viewBox="0 -5 512 512" width="512pt" xmlns="http://www.w3.org/2000/svg"><path d="m467 288.359375h-74.792969c-24.8125 0-45 20.1875-45 45v8.34375h-40.578125v-104.742187h16.515625c41.824219 0 75.847657-34.027344 75.847657-75.851563s-34.023438-75.847656-75.847657-75.847656h-52.144531v-70.261719c0-8.285156-6.714844-15-15-15s-15 6.714844-15 15v70.261719h-52.144531c-41.824219 0-75.847657 34.023437-75.847657 75.847656s34.023438 75.851563 75.847657 75.851563h16.515625v104.742187h-40.578125v-8.34375c0-24.8125-20.1875-45-45-45h-74.792969c-24.8125 0-45 20.1875-45 45v123.246094c0 24.816406 20.1875 45 45 45h74.792969c24.8125 0 45-20.183594 45-45v-8.339844h182.414062v8.339844c0 24.816406 20.1875 45 45 45h74.792969c24.8125 0 45-20.183594 45-45v-123.246094c0-24.8125-20.1875-45-45-45zm-437 142.328125v-20.703125h104.792969v20.703125zm104.792969-71.410156v20.707031h-104.792969v-20.707031zm-.578125-30h-103.636719c1.785156-6.289063 7.566406-10.917969 14.421875-10.917969h74.792969c6.855469 0 12.636719 4.628906 14.421875 10.917969zm-103.636719 131.410156h103.636719c-1.785156 6.292969-7.566406 10.917969-14.421875 10.917969h-74.792969c-6.855469 0-12.636719-4.625-14.421875-10.917969zm134.214844-88.984375h182.414062v46.5625h-182.414062zm70.578125-134.742187h41.261718v104.742187h-41.261718zm-92.363282-75.851563c0-25.28125 20.566407-45.847656 45.847657-45.847656h134.289062c25.28125 0 45.847657 20.566406 45.847657 45.847656s-20.566407 45.851563-45.847657 45.851563h-134.289062c-25.28125 0-45.847657-20.570313-45.847657-45.851563zm234.199219 269.578125v-20.703125h104.792969v20.703125zm104.792969-71.410156v20.707031h-104.792969v-20.707031zm-.578125-30h-103.636719c1.785156-6.289063 7.566406-10.917969 14.421875-10.917969h74.792969c6.855469 0 12.636719 4.628906 14.421875 10.917969zm-103.636719 131.410156h103.636719c-1.785156 6.292969-7.566406 10.917969-14.421875 10.917969h-74.792969c-6.855469 0-12.636719-4.625-14.421875-10.917969zm0 0"/><path d="m199.980469 158.203125c0 8.558594-6.941407 15.5-15.5 15.5-8.5625 0-15.5-6.941406-15.5-15.5s6.9375-15.5 15.5-15.5c8.558593 0 15.5 6.941406 15.5 15.5zm0 0"/><path d="m343.019531 158.203125c0 8.558594-6.9375 15.5-15.5 15.5-8.558593 0-15.5-6.941406-15.5-15.5s6.941407-15.5 15.5-15.5c8.5625 0 15.5 6.941406 15.5 15.5zm0 0"/></svg>