<svg id="_x31_px" enable-background="new 0 0 24 24" height="512" viewBox="0 0 24 24" width="512" xmlns="http://www.w3.org/2000/svg"><path d="m22.5 24h-11c-.827 0-1.5-.673-1.5-1.5 0-.293.081-.568.234-.799l5.489-8.982c.259-.441.751-.719 1.277-.719s1.018.278 1.28.727l5.496 8.992c.143.213.224.488.224.781 0 .827-.673 1.5-1.5 1.5zm-5.5-11c-.174 0-.334.089-.419.232l-5.504 9.008c-.055.082-.077.166-.077.26 0 .275.225.5.5.5h11c.275 0 .5-.225.5-.5 0-.094-.022-.178-.066-.242l-5.511-9.018c-.089-.151-.249-.24-.423-.24z"/><path d="m17 20c-.276 0-.5-.224-.5-.5v-4c0-.276.224-.5.5-.5s.5.224.5.5v4c0 .276-.224.5-.5.5z"/><circle cx="17" cy="21.5" r=".5"/><path d="m18.5 8h-15c-1.93 0-3.5-1.57-3.5-3.5s1.57-3.5 3.5-3.5h15c1.93 0 3.5 1.57 3.5 3.5s-1.57 3.5-3.5 3.5zm-15-6c-1.379 0-2.5 1.121-2.5 2.5s1.121 2.5 2.5 2.5h15c1.379 0 2.5-1.121 2.5-2.5s-1.121-2.5-2.5-2.5z"/><path d="m4.5 6c-.827 0-1.5-.673-1.5-1.5s.673-1.5 1.5-1.5 1.5.673 1.5 1.5-.673 1.5-1.5 1.5zm0-2c-.275 0-.5.225-.5.5s.225.5.5.5.5-.225.5-.5-.225-.5-.5-.5z"/><path d="m9.5 6c-.827 0-1.5-.673-1.5-1.5s.673-1.5 1.5-1.5 1.5.673 1.5 1.5-.673 1.5-1.5 1.5zm0-2c-.275 0-.5.225-.5.5s.225.5.5.5.5-.225.5-.5-.225-.5-.5-.5z"/><path d="m12.5 14h-9c-1.93 0-3.5-1.57-3.5-3.5 0-.934.364-1.812 1.026-2.474s1.54-1.026 2.474-1.026h15c1.93 0 3.5 1.57 3.5 3.5 0 .751-.23 1.462-.667 2.056-.165.225-.479.271-.699.107-.223-.164-.271-.477-.107-.699.309-.421.473-.928.473-1.464 0-1.379-1.121-2.5-2.5-2.5h-15c-.666 0-1.294.261-1.767.733s-.733 1.101-.733 1.767c0 1.379 1.121 2.5 2.5 2.5h9c.276 0 .5.224.5.5s-.224.5-.5.5z"/><path d="m4.5 12c-.827 0-1.5-.673-1.5-1.5s.673-1.5 1.5-1.5 1.5.673 1.5 1.5-.673 1.5-1.5 1.5zm0-2c-.275 0-.5.225-.5.5s.225.5.5.5.5-.225.5-.5-.225-.5-.5-.5z"/><path d="m9.5 12c-.827 0-1.5-.673-1.5-1.5s.673-1.5 1.5-1.5 1.5.673 1.5 1.5-.673 1.5-1.5 1.5zm0-2c-.275 0-.5.225-.5.5s.225.5.5.5.5-.225.5-.5-.225-.5-.5-.5z"/><path d="m8.5 20h-5c-1.93 0-3.5-1.57-3.5-3.5 0-.934.364-1.812 1.026-2.474s1.54-1.026 2.474-1.026h9c.276 0 .5.224.5.5s-.224.5-.5.5h-9c-.666 0-1.294.261-1.767.733s-.733 1.101-.733 1.767c0 1.379 1.121 2.5 2.5 2.5h5c.276 0 .5.224.5.5s-.224.5-.5.5z"/><path d="m4.5 18c-.827 0-1.5-.673-1.5-1.5s.673-1.5 1.5-1.5 1.5.673 1.5 1.5-.673 1.5-1.5 1.5zm0-2c-.275 0-.5.225-.5.5s.225.5.5.5.5-.225.5-.5-.225-.5-.5-.5z"/><path d="m9.5 18c-.827 0-1.5-.673-1.5-1.5s.673-1.5 1.5-1.5 1.5.673 1.5 1.5-.673 1.5-1.5 1.5zm0-2c-.275 0-.5.225-.5.5s.225.5.5.5.5-.225.5-.5-.225-.5-.5-.5z"/></svg>